<svg width="24" height="24" viewBox="0 0 24 24" fill="none" xmlns="http://www.w3.org/2000/svg">
<path fill-rule="evenodd" clip-rule="evenodd" d="M12 1.50006C9.50722 1.5004 7.09587 2.3876 5.19729 4.00296C3.29871 5.61832 2.03676 7.85646 1.63719 10.317C1.23762 12.7776 1.72649 15.3 3.01636 17.4332C4.30622 19.5663 6.31293 21.1709 8.67751 21.9601C9.20251 22.0576 9.42751 21.7351 9.42751 21.4576V19.6726C6.51001 20.3026 5.89501 18.2626 5.89501 18.2626C5.68985 17.6197 5.25805 17.0733 4.68001 16.7251C3.72751 16.0801 4.75501 16.0876 4.75501 16.0876C5.08772 16.1346 5.40528 16.257 5.68345 16.4455C5.96161 16.6339 6.19303 16.8835 6.36001 17.1751C6.65052 17.6961 7.13607 18.0805 7.70989 18.2436C8.28371 18.4068 8.89883 18.3353 9.42001 18.0451C9.46236 17.5129 9.69696 17.0144 10.08 16.6426C7.75501 16.3726 5.30251 15.4726 5.30251 11.4526C5.28551 10.4085 5.67243 9.39818 6.38251 8.63256C6.06111 7.72821 6.09869 6.73504 6.48751 5.85756C6.48751 5.85756 7.36501 5.57256 9.37501 6.93006C11.0936 6.46127 12.9064 6.46127 14.625 6.93006C16.6275 5.57256 17.505 5.85756 17.505 5.85756C17.8938 6.73504 17.9314 7.72821 17.61 8.63256C18.3201 9.39818 18.707 10.4085 18.69 11.4526C18.69 15.4876 16.2375 16.3726 13.8975 16.6351C14.1482 16.8891 14.3415 17.194 14.4644 17.5291C14.5873 17.8641 14.6369 18.2217 14.61 18.5776V21.4576C14.61 21.8026 14.7975 22.0651 15.36 21.9601C17.7277 21.17 19.7365 19.5622 21.0262 17.4252C22.3158 15.2881 22.802 12.7615 22.3975 10.2985C21.993 7.8354 20.7243 5.597 18.8189 3.98464C16.9135 2.37228 14.496 1.49144 12 1.50006V1.50006Z" fill="#292D32"/>
</svg>
