<svg width="32" height="32" viewBox="0 0 32 32" fill="none" xmlns="http://www.w3.org/2000/svg">
<rect x="0.5" y="0.5" width="31" height="31" rx="15.5" fill="#6078E9"/>
<path d="M16.3937 24C14.8468 24 13.5186 23.6604 12.4089 22.9811C11.3059 22.3018 10.4551 21.3636 9.85652 20.1665C9.26467 18.9626 8.96875 17.5771 8.96875 16.0101C8.96875 14.4363 9.2714 13.0475 9.87669 11.8436C10.482 10.633 11.3361 9.69147 12.4391 9.01891C13.5488 8.33964 14.8603 8 16.3735 8C17.6312 8 18.7443 8.23203 19.7128 8.69609C20.688 9.15343 21.4648 9.80244 22.0432 10.6431C22.6215 11.4771 22.9511 12.4523 23.0318 13.5687H19.5413C19.4 12.8222 19.0637 12.2001 18.5324 11.7024C18.0078 11.198 17.305 10.9458 16.424 10.9458C15.6775 10.9458 15.0217 11.1475 14.4568 11.5511C13.8918 11.9479 13.4513 12.5195 13.1352 13.2661C12.8258 14.0126 12.6711 14.9071 12.6711 15.9496C12.6711 17.0055 12.8258 17.9134 13.1352 18.6734C13.4446 19.4266 13.8784 20.0084 14.4366 20.4187C15.0015 20.8222 15.664 21.024 16.424 21.024C16.962 21.024 17.4429 20.9231 17.8666 20.7213C18.297 20.5128 18.6569 20.2135 18.9461 19.8235C19.2352 19.4334 19.4337 18.9592 19.5413 18.401H23.0318C22.9444 19.4973 22.6215 20.4691 22.0633 21.3165C21.5051 22.1572 20.7451 22.8163 19.7834 23.2938C18.8216 23.7646 17.6917 24 16.3937 24Z" fill="white"/>
<rect x="0.5" y="0.5" width="31" height="31" rx="15.5" stroke="white"/>
</svg>
